<?xml version="1.0" standalone="no"?>
<!DOCTYPE svg PUBLIC "-//W3C//DTD SVG 20010904//EN"
 "http://www.w3.org/TR/2001/REC-SVG-20010904/DTD/svg10.dtd">
<svg version="1.0" xmlns="http://www.w3.org/2000/svg"
 width="512.000000pt" height="512.000000pt" viewBox="0 0 512.000000 512.000000"
 preserveAspectRatio="xMidYMid meet">
<metadata>
Created by potrace 1.14, written by Peter Selinger 2001-2017
</metadata>
<g transform="translate(0.000000,512.000000) scale(0.100000,-0.100000)"
fill="#000000" stroke="none">
<path d="M2338 5115 c-2 -1 -46 -5 -98 -9 -52 -4 -106 -8 -120 -11 -14 -2 -61
-9 -105 -15 -121 -17 -132 -19 -247 -45 -412 -93 -778 -256 -1063 -474 -33
-25 -103 -88 -155 -141 -237 -239 -352 -507 -336 -785 3 -55 7 -109 10 -120
51 -240 154 -416 362 -621 l123 -122 -1 -1133 c-1 -1210 -2 -1182 48 -1296 62
-143 185 -258 337 -315 l62 -23 1379 -3 c1368 -2 1380 -2 1455 18 167 46 306
165 375 323 51 115 50 84 50 1300 l1 1139 30 25 c217 182 362 390 431 618 24
80 27 107 28 240 1 171 -13 243 -73 385 -233 543 -998 967 -1906 1054 -115 11
-577 20 -587 11z"/>
</g>
</svg>
